<mxfile host="Electron" agent="Mozilla/5.0 (Windows NT 10.0; Win64; x64) AppleWebKit/537.36 (KHTML, like Gecko) draw.io/28.1.2 Chrome/138.0.7204.243 Electron/37.4.0 Safari/537.36" version="28.1.2">
  <diagram name="Page-1" id="0L_We7PPouP0E7C-KQ7t">
    <mxGraphModel dx="1895" dy="1138" grid="1" gridSize="10" guides="1" tooltips="1" connect="1" arrows="1" fold="1" page="1" pageScale="1" pageWidth="850" pageHeight="1100" math="0" shadow="0">
      <root>
        <mxCell id="0" />
        <mxCell id="1" parent="0" />
        <mxCell id="Gn_5Nc4ufUiVhqYy5JWp-1" value="Developer Machine" style="swimlane;" vertex="1" parent="1">
          <mxGeometry x="250" y="10" width="330" height="200" as="geometry" />
        </mxCell>
        <mxCell id="Gn_5Nc4ufUiVhqYy5JWp-3" value="Developer" style="points=[[0.35,0,0],[0.98,0.51,0],[1,0.71,0],[0.67,1,0],[0,0.795,0],[0,0.65,0]];verticalLabelPosition=bottom;sketch=0;html=1;verticalAlign=top;aspect=fixed;align=center;pointerEvents=1;shape=mxgraph.cisco19.user;fillColor=#005073;strokeColor=none;" vertex="1" parent="Gn_5Nc4ufUiVhqYy5JWp-1">
          <mxGeometry x="210" y="40" width="60" height="60" as="geometry" />
        </mxCell>
        <mxCell id="Gn_5Nc4ufUiVhqYy5JWp-5" value="Git Service" style="verticalLabelPosition=bottom;html=1;verticalAlign=top;align=center;strokeColor=none;fillColor=#00BEF2;shape=mxgraph.azure.git_repository;" vertex="1" parent="Gn_5Nc4ufUiVhqYy5JWp-1">
          <mxGeometry x="80" y="100" width="50" height="50" as="geometry" />
        </mxCell>
        <mxCell id="Gn_5Nc4ufUiVhqYy5JWp-6" style="edgeStyle=orthogonalEdgeStyle;rounded=0;orthogonalLoop=1;jettySize=auto;html=1;exitX=0;exitY=0.65;exitDx=0;exitDy=0;exitPerimeter=0;entryX=0.5;entryY=0;entryDx=0;entryDy=0;entryPerimeter=0;" edge="1" parent="Gn_5Nc4ufUiVhqYy5JWp-1" source="Gn_5Nc4ufUiVhqYy5JWp-3" target="Gn_5Nc4ufUiVhqYy5JWp-5">
          <mxGeometry relative="1" as="geometry" />
        </mxCell>
        <mxCell id="Gn_5Nc4ufUiVhqYy5JWp-2" value="GitHub Platform" style="swimlane;" vertex="1" parent="1">
          <mxGeometry x="20" y="280" width="770" height="830" as="geometry" />
        </mxCell>
        <mxCell id="Gn_5Nc4ufUiVhqYy5JWp-30" style="edgeStyle=orthogonalEdgeStyle;rounded=0;orthogonalLoop=1;jettySize=auto;html=1;exitX=0;exitY=0.79;exitDx=0;exitDy=0;exitPerimeter=0;" edge="1" parent="Gn_5Nc4ufUiVhqYy5JWp-2" source="Gn_5Nc4ufUiVhqYy5JWp-7" target="Gn_5Nc4ufUiVhqYy5JWp-9">
          <mxGeometry relative="1" as="geometry" />
        </mxCell>
        <mxCell id="Gn_5Nc4ufUiVhqYy5JWp-42" style="edgeStyle=orthogonalEdgeStyle;rounded=0;orthogonalLoop=1;jettySize=auto;html=1;exitX=1;exitY=0.5;exitDx=0;exitDy=0;exitPerimeter=0;" edge="1" parent="Gn_5Nc4ufUiVhqYy5JWp-2" source="Gn_5Nc4ufUiVhqYy5JWp-7" target="Gn_5Nc4ufUiVhqYy5JWp-10">
          <mxGeometry relative="1" as="geometry" />
        </mxCell>
        <mxCell id="Gn_5Nc4ufUiVhqYy5JWp-7" value="Web Application" style="outlineConnect=0;dashed=0;verticalLabelPosition=bottom;verticalAlign=top;align=center;html=1;shape=mxgraph.aws3.ec2;fillColor=#F58534;gradientColor=none;" vertex="1" parent="Gn_5Nc4ufUiVhqYy5JWp-2">
          <mxGeometry x="389.75" y="154" width="76.5" height="93" as="geometry" />
        </mxCell>
        <mxCell id="Gn_5Nc4ufUiVhqYy5JWp-31" style="edgeStyle=orthogonalEdgeStyle;rounded=0;orthogonalLoop=1;jettySize=auto;html=1;exitX=1;exitY=0.5;exitDx=0;exitDy=0;exitPerimeter=0;" edge="1" parent="Gn_5Nc4ufUiVhqYy5JWp-2" source="Gn_5Nc4ufUiVhqYy5JWp-9" target="Gn_5Nc4ufUiVhqYy5JWp-12">
          <mxGeometry relative="1" as="geometry" />
        </mxCell>
        <mxCell id="Gn_5Nc4ufUiVhqYy5JWp-9" value="Code Search Service" style="outlineConnect=0;dashed=0;verticalLabelPosition=bottom;verticalAlign=top;align=center;html=1;shape=mxgraph.aws3.ec2;fillColor=#F58534;gradientColor=none;" vertex="1" parent="Gn_5Nc4ufUiVhqYy5JWp-2">
          <mxGeometry x="203" y="287.5" width="76.5" height="93" as="geometry" />
        </mxCell>
        <mxCell id="Gn_5Nc4ufUiVhqYy5JWp-51" style="edgeStyle=orthogonalEdgeStyle;rounded=0;orthogonalLoop=1;jettySize=auto;html=1;exitX=0.5;exitY=1;exitDx=0;exitDy=0;exitPerimeter=0;" edge="1" parent="Gn_5Nc4ufUiVhqYy5JWp-2" source="Gn_5Nc4ufUiVhqYy5JWp-10" target="Gn_5Nc4ufUiVhqYy5JWp-50">
          <mxGeometry relative="1" as="geometry" />
        </mxCell>
        <mxCell id="Gn_5Nc4ufUiVhqYy5JWp-10" value="Actions Service" style="outlineConnect=0;dashed=0;verticalLabelPosition=bottom;verticalAlign=top;align=center;html=1;shape=mxgraph.aws3.ec2;fillColor=#F58534;gradientColor=none;" vertex="1" parent="Gn_5Nc4ufUiVhqYy5JWp-2">
          <mxGeometry x="603" y="287.5" width="76.5" height="93" as="geometry" />
        </mxCell>
        <mxCell id="Gn_5Nc4ufUiVhqYy5JWp-12" value="Search Index" style="outlineConnect=0;dashed=0;verticalLabelPosition=bottom;verticalAlign=top;align=center;html=1;shape=mxgraph.aws3.elasticsearch_service;fillColor=#F58534;gradientColor=none;" vertex="1" parent="Gn_5Nc4ufUiVhqYy5JWp-2">
          <mxGeometry x="273" y="456.5" width="67.5" height="81" as="geometry" />
        </mxCell>
        <mxCell id="Gn_5Nc4ufUiVhqYy5JWp-13" value="Redis" style="image;sketch=0;aspect=fixed;html=1;points=[];align=center;fontSize=12;image=img/lib/mscae/Cache_Redis_Product.svg;" vertex="1" parent="Gn_5Nc4ufUiVhqYy5JWp-2">
          <mxGeometry x="394.82" y="477.5" width="71.43" height="60" as="geometry" />
        </mxCell>
        <mxCell id="Gn_5Nc4ufUiVhqYy5JWp-32" style="edgeStyle=orthogonalEdgeStyle;rounded=0;orthogonalLoop=1;jettySize=auto;html=1;exitX=0.5;exitY=1;exitDx=0;exitDy=0;exitPerimeter=0;entryX=0.451;entryY=-0.032;entryDx=0;entryDy=0;entryPerimeter=0;" edge="1" parent="Gn_5Nc4ufUiVhqYy5JWp-2" source="Gn_5Nc4ufUiVhqYy5JWp-7" target="Gn_5Nc4ufUiVhqYy5JWp-13">
          <mxGeometry relative="1" as="geometry" />
        </mxCell>
        <mxCell id="Gn_5Nc4ufUiVhqYy5JWp-39" style="edgeStyle=orthogonalEdgeStyle;rounded=0;orthogonalLoop=1;jettySize=auto;html=1;exitX=1;exitY=0.8;exitDx=0;exitDy=0;exitPerimeter=0;" edge="1" parent="Gn_5Nc4ufUiVhqYy5JWp-2" source="Gn_5Nc4ufUiVhqYy5JWp-34" target="Gn_5Nc4ufUiVhqYy5JWp-7">
          <mxGeometry relative="1" as="geometry" />
        </mxCell>
        <mxCell id="Gn_5Nc4ufUiVhqYy5JWp-34" value="API Gateway" style="outlineConnect=0;dashed=0;verticalLabelPosition=bottom;verticalAlign=top;align=center;html=1;shape=mxgraph.aws3.api_gateway;fillColor=#D9A741;gradientColor=none;" vertex="1" parent="Gn_5Nc4ufUiVhqYy5JWp-2">
          <mxGeometry x="230" y="40" width="63.25" height="76.89" as="geometry" />
        </mxCell>
        <mxCell id="Gn_5Nc4ufUiVhqYy5JWp-41" style="edgeStyle=orthogonalEdgeStyle;rounded=0;orthogonalLoop=1;jettySize=auto;html=1;exitX=0.5;exitY=1;exitDx=0;exitDy=0;exitPerimeter=0;" edge="1" parent="Gn_5Nc4ufUiVhqYy5JWp-2" target="Gn_5Nc4ufUiVhqYy5JWp-14">
          <mxGeometry relative="1" as="geometry">
            <mxPoint x="88.24999999999977" y="248.99999999999977" as="sourcePoint" />
          </mxGeometry>
        </mxCell>
        <mxCell id="Gn_5Nc4ufUiVhqYy5JWp-35" value="Git Service" style="outlineConnect=0;dashed=0;verticalLabelPosition=bottom;verticalAlign=top;align=center;html=1;shape=mxgraph.aws3.ec2;fillColor=#F58534;gradientColor=none;" vertex="1" parent="Gn_5Nc4ufUiVhqYy5JWp-2">
          <mxGeometry x="50" y="154" width="76.5" height="93" as="geometry" />
        </mxCell>
        <mxCell id="Gn_5Nc4ufUiVhqYy5JWp-40" style="edgeStyle=orthogonalEdgeStyle;rounded=0;orthogonalLoop=1;jettySize=auto;html=1;exitX=0;exitY=0.8;exitDx=0;exitDy=0;exitPerimeter=0;entryX=0.5;entryY=0;entryDx=0;entryDy=0;entryPerimeter=0;" edge="1" parent="Gn_5Nc4ufUiVhqYy5JWp-2" source="Gn_5Nc4ufUiVhqYy5JWp-34" target="Gn_5Nc4ufUiVhqYy5JWp-35">
          <mxGeometry relative="1" as="geometry" />
        </mxCell>
        <mxCell id="Gn_5Nc4ufUiVhqYy5JWp-43" style="edgeStyle=orthogonalEdgeStyle;rounded=0;orthogonalLoop=1;jettySize=auto;html=1;exitX=0.5;exitY=0;exitDx=0;exitDy=0;exitPerimeter=0;entryX=1;entryY=0.5;entryDx=0;entryDy=0;entryPerimeter=0;" edge="1" parent="Gn_5Nc4ufUiVhqYy5JWp-2" source="Gn_5Nc4ufUiVhqYy5JWp-10" target="Gn_5Nc4ufUiVhqYy5JWp-7">
          <mxGeometry relative="1" as="geometry" />
        </mxCell>
        <mxCell id="Gn_5Nc4ufUiVhqYy5JWp-47" style="edgeStyle=orthogonalEdgeStyle;rounded=0;orthogonalLoop=1;jettySize=auto;html=1;exitX=0.5;exitY=1;exitDx=0;exitDy=0;exitPerimeter=0;" edge="1" parent="Gn_5Nc4ufUiVhqYy5JWp-2" source="Gn_5Nc4ufUiVhqYy5JWp-7" target="Gn_5Nc4ufUiVhqYy5JWp-50">
          <mxGeometry relative="1" as="geometry">
            <mxPoint x="543.6079999999997" y="634.38742" as="targetPoint" />
            <Array as="points">
              <mxPoint x="470" y="247" />
              <mxPoint x="470" y="419" />
              <mxPoint x="520" y="419" />
              <mxPoint x="520" y="634" />
            </Array>
          </mxGeometry>
        </mxCell>
        <mxCell id="Gn_5Nc4ufUiVhqYy5JWp-50" value="Metadata DB" style="sketch=0;outlineConnect=0;fontColor=#232F3E;gradientColor=none;fillColor=#C925D1;strokeColor=none;dashed=0;verticalLabelPosition=bottom;verticalAlign=top;align=center;html=1;fontSize=12;fontStyle=0;aspect=fixed;pointerEvents=1;shape=mxgraph.aws4.rds_multi_az_db_cluster;" vertex="1" parent="Gn_5Nc4ufUiVhqYy5JWp-2">
          <mxGeometry x="560" y="590" width="100" height="100" as="geometry" />
        </mxCell>
        <mxCell id="Gn_5Nc4ufUiVhqYy5JWp-14" value="DGit Storage" style="verticalLabelPosition=bottom;html=1;verticalAlign=top;align=center;strokeColor=none;fillColor=#00BEF2;shape=mxgraph.azure.github_code;pointerEvents=1;" vertex="1" parent="Gn_5Nc4ufUiVhqYy5JWp-2">
          <mxGeometry x="50" y="720" width="74" height="74" as="geometry" />
        </mxCell>
        <mxCell id="Gn_5Nc4ufUiVhqYy5JWp-15" value="" style="verticalLabelPosition=bottom;html=1;verticalAlign=top;align=center;strokeColor=#C73500;fillColor=#fa6800;shape=mxgraph.azure.git_repository;fontColor=#000000;" vertex="1" parent="Gn_5Nc4ufUiVhqYy5JWp-2">
          <mxGeometry x="71.5" y="749" width="31.5" height="31.5" as="geometry" />
        </mxCell>
        <mxCell id="Gn_5Nc4ufUiVhqYy5JWp-22" value="CI/CD Pipeline" style="swimlane;" vertex="1" parent="1">
          <mxGeometry x="930" y="540" width="340" height="360" as="geometry" />
        </mxCell>
        <mxCell id="Gn_5Nc4ufUiVhqYy5JWp-27" style="edgeStyle=orthogonalEdgeStyle;rounded=0;orthogonalLoop=1;jettySize=auto;html=1;exitX=1;exitY=0.51;exitDx=0;exitDy=0;exitPerimeter=0;entryX=0.5;entryY=0;entryDx=0;entryDy=0;" edge="1" parent="Gn_5Nc4ufUiVhqYy5JWp-22" source="Gn_5Nc4ufUiVhqYy5JWp-17" target="Gn_5Nc4ufUiVhqYy5JWp-20">
          <mxGeometry relative="1" as="geometry" />
        </mxCell>
        <mxCell id="Gn_5Nc4ufUiVhqYy5JWp-17" value="Job Queue" style="verticalLabelPosition=bottom;html=1;verticalAlign=top;align=center;strokeColor=none;fillColor=#00BEF2;shape=mxgraph.azure.queue_generic;pointerEvents=1;" vertex="1" parent="Gn_5Nc4ufUiVhqYy5JWp-22">
          <mxGeometry x="75" y="50" width="160" height="48" as="geometry" />
        </mxCell>
        <mxCell id="Gn_5Nc4ufUiVhqYy5JWp-20" value="Action Runners&amp;nbsp;&lt;div&gt;(VM / Container)&lt;/div&gt;" style="editableCssRules=.*;html=1;shape=image;verticalLabelPosition=bottom;labelBackgroundColor=#ffffff;verticalAlign=top;aspect=fixed;imageAspect=0;image=data:image/svg+xml,PHN2ZyB4bWxucz0iaHR0cDovL3d3dy53My5vcmcvMjAwMC9zdmciIHhtbG5zOnY9Imh0dHBzOi8vdmVjdGEuaW8vbmFubyIgd2lkdGg9IjE0LjAwMDI5OTQ1MzczNTM1MiIgaGVpZ2h0PSIxNS45OTI5MjI3ODI4OTc5NSIgdmlld0JveD0iLTAuMDAwMTQ5NjA4NDAwNTMzOTA3MTIgLTAuMDAwNDYxNzIyMDgzODU1NDIwMzUgMTQuMDAwMjk5NDUzNzM1MzUyIDE1Ljk5MjkyMjc4Mjg5Nzk1Ij4mI3hhOwk8c3R5bGUgdHlwZT0idGV4dC9jc3MiPiYjeGE7CS5zdDB7ZmlsbDojNDI4NWY0O30mI3hhOwk8L3N0eWxlPiYjeGE7CTxwYXRoIGNsYXNzPSJzdDAiIGQ9Ik0xMy42NyAzLjczNkw3LjM2LjA5NmEuNzIuNzIgMCAwIDAtLjcyIDBMLjMzIDMuNzM2YS43Mi43MiAwIDAgMC0uMzMuNjJ2Ny4yOGEuNzIuNzIgMCAwIDAgLjM2LjYybDYuMjggMy42NGEuNzIuNzIgMCAwIDAgLjcyIDBsNi4zMS0zLjY0YS43Mi43MiAwIDAgMCAuMzMtLjYydi03LjI4YS43Mi43MiAwIDAgMC0uMzMtLjYyem0tLjg3IDcuMmwtMi4yLTEuMjd2LTMuMzRsLTMuMjUgMS44N3YzLjhsMi45LTEuNjcgMi4yIDEuMjctNS40NSAzLjEtNS40NS0zLjE1IDIuMi0xLjI3IDIuOSAxLjcydi0zLjhMMy40IDYuMzI2djMuMzRsLTIuMiAxLjI3di02LjI5bDUuNDUtMy4xNHYyLjQ5bC0yLjkgMS43Mkw3IDcuNTg2bDMuMjUtMS44OC0yLjktMS43MXYtMi40OWw1LjQ1IDMuMTR6Ii8+JiN4YTs8L3N2Zz4=;" vertex="1" parent="Gn_5Nc4ufUiVhqYy5JWp-22">
          <mxGeometry x="230" y="171.14999999999998" width="68" height="77.71" as="geometry" />
        </mxCell>
        <mxCell id="Gn_5Nc4ufUiVhqYy5JWp-21" value="Runner Log" style="verticalLabelPosition=bottom;sketch=0;html=1;fillColor=#A153A0;strokeColor=#ffffff;verticalAlign=top;align=center;points=[[0,0.5,0],[0.125,0.25,0],[0.25,0,0],[0.5,0,0],[0.75,0,0],[0.875,0.25,0],[1,0.5,0],[0.875,0.75,0],[0.75,1,0],[0.5,1,0],[0.125,0.75,0]];pointerEvents=1;shape=mxgraph.cisco_safe.compositeIcon;bgIcon=mxgraph.cisco_safe.design.blank_device;resIcon=mxgraph.cisco_safe.design.log_collector;" vertex="1" parent="Gn_5Nc4ufUiVhqYy5JWp-22">
          <mxGeometry x="49.99999999999997" y="270" width="72.22" height="65" as="geometry" />
        </mxCell>
        <mxCell id="Gn_5Nc4ufUiVhqYy5JWp-45" style="edgeStyle=orthogonalEdgeStyle;rounded=0;orthogonalLoop=1;jettySize=auto;html=1;exitX=0;exitY=0.75;exitDx=0;exitDy=0;entryX=0.5;entryY=0;entryDx=0;entryDy=0;entryPerimeter=0;" edge="1" parent="Gn_5Nc4ufUiVhqYy5JWp-22" source="Gn_5Nc4ufUiVhqYy5JWp-20" target="Gn_5Nc4ufUiVhqYy5JWp-21">
          <mxGeometry relative="1" as="geometry" />
        </mxCell>
        <mxCell id="Gn_5Nc4ufUiVhqYy5JWp-26" style="edgeStyle=orthogonalEdgeStyle;rounded=0;orthogonalLoop=1;jettySize=auto;html=1;exitX=1;exitY=0.5;exitDx=0;exitDy=0;exitPerimeter=0;entryX=0;entryY=0.5;entryDx=0;entryDy=0;entryPerimeter=0;" edge="1" parent="1" source="Gn_5Nc4ufUiVhqYy5JWp-10" target="Gn_5Nc4ufUiVhqYy5JWp-17">
          <mxGeometry relative="1" as="geometry" />
        </mxCell>
        <mxCell id="Gn_5Nc4ufUiVhqYy5JWp-37" style="edgeStyle=orthogonalEdgeStyle;rounded=0;orthogonalLoop=1;jettySize=auto;html=1;exitX=0.67;exitY=1;exitDx=0;exitDy=0;exitPerimeter=0;entryX=1;entryY=0.21;entryDx=0;entryDy=0;entryPerimeter=0;" edge="1" parent="1" source="Gn_5Nc4ufUiVhqYy5JWp-3" target="Gn_5Nc4ufUiVhqYy5JWp-34">
          <mxGeometry relative="1" as="geometry" />
        </mxCell>
        <mxCell id="Gn_5Nc4ufUiVhqYy5JWp-38" style="edgeStyle=orthogonalEdgeStyle;rounded=0;orthogonalLoop=1;jettySize=auto;html=1;exitX=0;exitY=0.5;exitDx=0;exitDy=0;exitPerimeter=0;" edge="1" parent="1" source="Gn_5Nc4ufUiVhqYy5JWp-5" target="Gn_5Nc4ufUiVhqYy5JWp-34">
          <mxGeometry relative="1" as="geometry" />
        </mxCell>
        <mxCell id="Gn_5Nc4ufUiVhqYy5JWp-46" style="edgeStyle=orthogonalEdgeStyle;rounded=0;orthogonalLoop=1;jettySize=auto;html=1;exitX=0;exitY=0.25;exitDx=0;exitDy=0;entryX=1;entryY=0.79;entryDx=0;entryDy=0;entryPerimeter=0;" edge="1" parent="1" source="Gn_5Nc4ufUiVhqYy5JWp-20" target="Gn_5Nc4ufUiVhqYy5JWp-10">
          <mxGeometry relative="1" as="geometry">
            <Array as="points">
              <mxPoint x="870" y="731" />
              <mxPoint x="870" y="641" />
            </Array>
          </mxGeometry>
        </mxCell>
        <mxCell id="Gn_5Nc4ufUiVhqYy5JWp-52" style="edgeStyle=orthogonalEdgeStyle;rounded=0;orthogonalLoop=1;jettySize=auto;html=1;exitX=0.5;exitY=1;exitDx=0;exitDy=0;entryX=1;entryY=0.5;entryDx=0;entryDy=0;entryPerimeter=0;" edge="1" parent="1" source="Gn_5Nc4ufUiVhqYy5JWp-20" target="Gn_5Nc4ufUiVhqYy5JWp-14">
          <mxGeometry relative="1" as="geometry" />
        </mxCell>
        <mxCell id="Gn_5Nc4ufUiVhqYy5JWp-54" style="edgeStyle=orthogonalEdgeStyle;rounded=0;orthogonalLoop=1;jettySize=auto;html=1;exitX=0.5;exitY=1;exitDx=0;exitDy=0;exitPerimeter=0;entryX=0;entryY=0.5;entryDx=0;entryDy=0;entryPerimeter=0;" edge="1" parent="1" source="Gn_5Nc4ufUiVhqYy5JWp-10" target="Gn_5Nc4ufUiVhqYy5JWp-21">
          <mxGeometry relative="1" as="geometry">
            <Array as="points">
              <mxPoint x="720" y="661" />
              <mxPoint x="720" y="843" />
            </Array>
          </mxGeometry>
        </mxCell>
        <mxCell id="Gn_5Nc4ufUiVhqYy5JWp-55" style="edgeStyle=orthogonalEdgeStyle;rounded=0;orthogonalLoop=1;jettySize=auto;html=1;exitX=0;exitY=0.5;exitDx=0;exitDy=0;exitPerimeter=0;entryX=0.5;entryY=1;entryDx=0;entryDy=0;entryPerimeter=0;" edge="1" parent="1" source="Gn_5Nc4ufUiVhqYy5JWp-21" target="Gn_5Nc4ufUiVhqYy5JWp-10">
          <mxGeometry relative="1" as="geometry">
            <Array as="points">
              <mxPoint x="720" y="843" />
              <mxPoint x="720" y="661" />
            </Array>
          </mxGeometry>
        </mxCell>
      </root>
    </mxGraphModel>
  </diagram>
</mxfile>
